<svg width="17" height="17" viewBox="0 0 17 17" fill="none" xmlns="http://www.w3.org/2000/svg">
<path fill-rule="evenodd" clip-rule="evenodd" d="M15.9244 15.3489H0.575581C0.422928 15.3489 0.276526 15.4095 0.168584 15.5175C0.0606415 15.6254 0 15.7718 0 15.9245C0 16.0771 0.0606415 16.2235 0.168584 16.3315C0.276526 16.4394 0.422928 16.5 0.575581 16.5H15.9244C16.0771 16.5 16.2235 16.4394 16.3314 16.3315C16.4394 16.2235 16.5 16.0771 16.5 15.9245C16.5 15.7718 16.4394 15.6254 16.3314 15.5175C16.2235 15.4095 16.0771 15.3489 15.9244 15.3489Z" fill="#030229"/>
<path fill-rule="evenodd" clip-rule="evenodd" d="M4.02885 16.5C3.8762 16.5 3.7298 16.4394 3.62186 16.3314C3.51391 16.2235 3.45327 16.0771 3.45327 15.9244V10.1686C3.45327 10.016 3.51391 9.86955 3.62186 9.76161C3.7298 9.65367 3.8762 9.59302 4.02885 9.59302H7.86606C8.01872 9.59302 8.16512 9.65367 8.27306 9.76161C8.381 9.86955 8.44164 10.016 8.44164 10.1686V15.9244C8.44164 16.0771 8.381 16.2235 8.27306 16.3314C8.16512 16.4394 8.01872 16.5 7.86606 16.5H9.78467C9.93732 16.5 10.0837 16.4394 10.1917 16.3314C10.2996 16.2235 10.3602 16.0771 10.3602 15.9244V0.575581C10.3602 0.422928 10.2996 0.276526 10.1917 0.168584C10.0837 0.0606415 9.93732 0 9.78467 0H2.11025C1.9576 0 1.81119 0.0606415 1.70325 0.168584C1.59531 0.276526 1.53467 0.422928 1.53467 0.575581V15.9244C1.53467 16.2421 1.79253 16.5 2.11025 16.5H4.02885ZM7.29048 10.7442V15.3488H4.60444V10.7442H7.29048ZM4.98816 7.86628V7.09884C4.98816 6.94618 4.92752 6.79978 4.81957 6.69184C4.71163 6.5839 4.56523 6.52326 4.41258 6.52326C4.25992 6.52326 4.11352 6.5839 4.00558 6.69184C3.89763 6.79978 3.83699 6.94618 3.83699 7.09884V7.86628C3.83699 8.01893 3.89763 8.16533 4.00558 8.27328C4.11352 8.38122 4.25992 8.44186 4.41258 8.44186C4.56523 8.44186 4.71163 8.38122 4.81957 8.27328C4.92752 8.16533 4.98816 8.01893 4.98816 7.86628ZM8.05792 7.86628V7.09884C8.05792 6.94618 7.99728 6.79978 7.88934 6.69184C7.7814 6.5839 7.635 6.52326 7.48234 6.52326C7.32969 6.52326 7.18329 6.5839 7.07535 6.69184C6.9674 6.79978 6.90676 6.94618 6.90676 7.09884V7.86628C6.90676 8.01893 6.9674 8.16533 7.07535 8.27328C7.18329 8.38122 7.32969 8.44186 7.48234 8.44186C7.635 8.44186 7.7814 8.38122 7.88934 8.27328C7.99728 8.16533 8.05792 8.01893 8.05792 7.86628ZM8.05792 4.02907V3.26163C8.05792 3.10897 7.99728 2.96257 7.88934 2.85463C7.7814 2.74669 7.635 2.68605 7.48234 2.68605C7.32969 2.68605 7.18329 2.74669 7.07535 2.85463C6.9674 2.96257 6.90676 3.10897 6.90676 3.26163V4.02907C6.90676 4.18172 6.9674 4.32812 7.07535 4.43607C7.18329 4.54401 7.32969 4.60465 7.48234 4.60465C7.635 4.60465 7.7814 4.54401 7.88934 4.43607C7.99728 4.32812 8.05792 4.18172 8.05792 4.02907ZM4.98816 4.02907V3.26163C4.98816 3.10897 4.92752 2.96257 4.81957 2.85463C4.71163 2.74669 4.56523 2.68605 4.41258 2.68605C4.25992 2.68605 4.11352 2.74669 4.00558 2.85463C3.89763 2.96257 3.83699 3.10897 3.83699 3.26163V4.02907C3.83699 4.18172 3.89763 4.32812 4.00558 4.43607C4.11352 4.54401 4.25992 4.60465 4.41258 4.60465C4.56523 4.60465 4.71163 4.54401 4.81957 4.43607C4.92752 4.32812 4.98816 4.18172 4.98816 4.02907ZM11.1277 3.06977H14.3893C14.542 3.06977 14.6884 3.13041 14.7963 3.23835C14.9043 3.34629 14.9649 3.4927 14.9649 3.64535V15.9244C14.9649 16.0771 14.9043 16.2235 14.7963 16.3314C14.6884 16.4394 14.542 16.5 14.3893 16.5H10.9988C11.0816 16.3258 11.1277 16.1301 11.1277 15.9244V3.06977ZM12.2789 10.1686V10.936C12.2789 11.0887 12.3395 11.2351 12.4474 11.343C12.5554 11.451 12.7018 11.5116 12.8544 11.5116C13.0071 11.5116 13.1535 11.451 13.2614 11.343C13.3694 11.2351 13.43 11.0887 13.43 10.936V10.1686C13.43 10.016 13.3694 9.86955 13.2614 9.76161C13.1535 9.65367 13.0071 9.59302 12.8544 9.59302C12.7018 9.59302 12.5554 9.65367 12.4474 9.76161C12.3395 9.86955 12.2789 10.016 12.2789 10.1686ZM13.43 7.09884V6.3314C13.43 6.17874 13.3694 6.03234 13.2614 5.9244C13.1535 5.81646 13.0071 5.75581 12.8544 5.75581C12.7018 5.75581 12.5554 5.81646 12.4474 5.9244C12.3395 6.03234 12.2789 6.17874 12.2789 6.3314V7.09884C12.2789 7.25149 12.3395 7.39789 12.4474 7.50583C12.5554 7.61378 12.7018 7.67442 12.8544 7.67442C13.0071 7.67442 13.1535 7.61378 13.2614 7.50583C13.3694 7.39789 13.43 7.25149 13.43 7.09884Z" fill="#030229"/>
</svg>
