<svg width="15" height="16" viewBox="0 0 15 16" fill="none" xmlns="http://www.w3.org/2000/svg">
<path d="M13.9344 0.8C13.7744 0.32 13.2144 0 12.7344 0C9.05435 0 4.97435 0 1.29435 0C0.894353 0 0.654353 0.4 0.894353 0.8C3.37435 5.6 -1.50565 10.4 0.494353 15.2C0.654353 15.68 1.21435 16 1.69435 16C5.37435 16 9.53435 16 13.2144 16C13.6144 16 13.8544 15.6 13.6144 15.2C11.0544 10.4 15.9344 5.6 13.9344 0.8ZM8.01435 1.6C9.37436 1.6 10.4144 2.64 10.4144 4C10.4144 5.04 9.77435 5.92 8.81435 6.24V8L8.01435 7.2L7.21435 8V6.24C6.33435 5.92 5.61435 5.04 5.61435 4C5.61435 2.64 6.73435 1.6 8.01435 1.6ZM8.01435 14.4H3.21435C2.73435 14.4 2.41435 14.08 2.41435 13.6C2.41435 13.12 2.73435 12.8 3.21435 12.8H8.01435C8.49436 12.8 8.81435 13.12 8.81435 13.6C8.81435 14.08 8.49436 14.4 8.01435 14.4ZM10.4144 11.2H3.21435C2.73435 11.2 2.41435 10.88 2.41435 10.4C2.41435 9.92 2.73435 9.6 3.21435 9.6H10.4144C10.8944 9.6 11.2144 9.92 11.2144 10.4C11.2144 10.88 10.8944 11.2 10.4144 11.2Z" fill="#605BFF"/>
</svg>
